<svg xmlns="http://www.w3.org/2000/svg" xmlns:xlink="http://www.w3.org/1999/xlink" width="19" height="19" viewBox="0 0 19 19">
    <defs>
        <path id="a" d="M0 .09h18.906v18.608H0z"/>
    </defs>
    <g fill="none" fill-rule="evenodd">
        <g transform="translate(0 .211)">
            <mask id="b" fill="#fff">
                <use xlink:href="#a"/>
            </mask>
            <path fill="#CCC" d="M9.454 17.605l-8.343-8.21 8.343-8.23 8.363 8.23-8.363 8.21zm9.317-8.537L9.785.225a.474.474 0 0 0-.662 0L.136 9.068a.46.46 0 0 0 0 .653l9.006 8.843a.46.46 0 0 0 .331.134.46.46 0 0 0 .332-.134l8.986-8.843a.49.49 0 0 0-.02-.653z" mask="url(#b)"/>
        </g>
        <path fill="#CCC" d="M15.263 9.605l-5.809 5.698-5.809-5.698 5.81-5.716 5.808 5.716zM9.298 3.41l-6.12 6.024a.218.218 0 0 0 0 .326l6.12 6.024a.224.224 0 0 0 .156.057c.058 0 .117-.02.156-.057l6.14-6.024a.218.218 0 0 0 0-.326L9.61 3.409a.24.24 0 0 0-.312 0z"/>
    </g>
</svg>
