<svg xmlns="http://www.w3.org/2000/svg" xmlns:xlink="http://www.w3.org/1999/xlink" width="22" height="22" viewBox="0 0 22 22">
    <defs>
        <path id="a" d="M0 .477h21.505v20.676H0z"/>
    </defs>
    <g fill="currentColor">
        <path fill="currentColor" d="M5.442 7.303h3.227v.922H6.497v1.983h1.808v.886H6.497v3.51H5.442zM8.851 12.622l1.067-.128c.061 1.084.206 1.248.923 1.248.704 0 .849-.35.849-.817 0-.606-.376-.933-1.298-1.784-.874-.793-1.432-1.319-1.432-2.216 0-1.12.667-1.68 1.856-1.68 1.286 0 1.76.536 1.844 1.738l-1.068.105c-.06-.735-.193-.922-.764-.922-.63 0-.813.269-.813.736 0 .489.304.78 1.08 1.492 1.055.98 1.65 1.482 1.65 2.543 0 1.085-.57 1.714-1.929 1.714-1.565 0-1.917-.792-1.965-2.029M13.388 7.303h1.055v6.392h2.112v.91h-3.167z"/>
        <g transform="translate(0 .37)">
            <mask id="b" fill="#fff">
                <use xlink:href="#a"/>
            </mask>
            <path fill="currentColor" d="M10.752 1.403c-5.397 0-9.788 4.223-9.788 9.412 0 5.19 4.391 9.413 9.788 9.413 5.398 0 9.788-4.223 9.788-9.413s-4.39-9.412-9.788-9.412m0 19.75C4.823 21.153 0 16.516 0 10.815 0 5.115 4.823.477 10.752.477s10.753 4.638 10.753 10.338c0 5.7-4.824 10.338-10.753 10.338" mask="url(#b)"/>
        </g>
    </g>
</svg>
